{"glyphs":{"0":{"ha":688,"x_min":0,"x_max":0,"o":""},"1":{"ha":688,"x_min":0,"x_max":0,"o":""},"2":{"ha":688,"x_min":0,"x_max":0,"o":""},"3":{"ha":688,"x_min":0,"x_max":0,"o":""},"4":{"ha":688,"x_min":0,"x_max":0,"o":""},"5":{"ha":688,"x_min":0,"x_max":0,"o":""},"6":{"ha":688,"x_min":0,"x_max":0,"o":""},"7":{"ha":688,"x_min":0,"x_max":0,"o":""},"8":{"ha":688,"x_min":0,"x_max":0,"o":""},"9":{"ha":688,"x_min":0,"x_max":0,"o":""},"\u0000":{"ha":0,"x_min":0,"x_max":0,"o":""},"\u001d":{"ha":0,"x_min":0,"x_max":0,"o":""}," ":{"ha":345,"x_min":0,"x_max":0,"o":""}," ":{"ha":345,"x_min":0,"x_max":0,"o":""},"!":{"ha":456,"x_min":0,"x_max":0,"o":""},"\"":{"ha":456,"x_min":0,"x_max":0,"o":""},"#":{"ha":906,"x_min":0,"x_max":0,"o":""},"$":{"ha":688,"x_min":0,"x_max":0,"o":""},"%":{"ha":1092,"x_min":0,"x_max":0,"o":""},"&":{"ha":1141,"x_min":0,"x_max":0,"o":""},"'":{"ha":235,"x_min":0,"x_max":0,"o":""},"(":{"ha":514,"x_min":0,"x_max":0,"o":""},")":{"ha":514,"x_min":0,"x_max":0,"o":""},"*":{"ha":694,"x_min":0,"x_max":0,"o":""},"+":{"ha":688,"x_min":0,"x_max":0,"o":""},",":{"ha":378,"x_min":0,"x_max":0,"o":""},"-":{"ha":454,"x_min":0,"x_max":0,"o":""},"­":{"ha":454,"x_min":0,"x_max":0,"o":""},".":{"ha":378,"x_min":0,"x_max":0,"o":""},"/":{"ha":386,"x_min":0,"x_max":0,"o":""},":":{"ha":378,"x_min":0,"x_max":0,"o":""},";":{"ha":378,"x_min":0,"x_max":0,"o":""},";":{"ha":378,"x_min":0,"x_max":0,"o":""},"<":{"ha":688,"x_min":0,"x_max":0,"o":""},"=":{"ha":688,"x_min":0,"x_max":0,"o":""},">":{"ha":688,"x_min":0,"x_max":0,"o":""},"?":{"ha":507,"x_min":0,"x_max":0,"o":""},"@":{"ha":2780,"x_min":0,"x_max":2775,"o":"m 556 1101 q 401 1099 504 1101 q 399 1096 401 1096 l 399 1093 q 445 1023 445 1066 q 412 852 445 978 q 382 808 412 808 l 347 808 q 290 730 320 808 q 296 724 290 724 q 377 746 302 724 l 377 732 q 309 613 377 633 q 252 551 272 613 q 255 543 252 548 q 453 564 453 553 q 499 749 486 713 l 502 749 q 616 751 544 749 l 673 572 q 746 570 723 570 l 854 570 q 925 572 895 570 q 1061 708 1044 572 q 958 844 1061 806 l 781 844 l 768 841 l 768 836 q 800 803 768 819 q 819 746 819 803 l 819 632 q 808 621 812 621 l 806 621 q 795 635 802 621 q 662 947 759 678 q 602 1101 610 1101 l 556 1101 m 510 819 q 513 822 510 822 q 551 971 545 971 q 594 825 578 872 l 591 819 q 534 817 565 819 q 510 819 519 819 m 2601 873 q 2558 857 2571 857 l 2507 857 q 2414 860 2471 857 q 2393 852 2399 857 q 2406 830 2393 837 q 2422 716 2422 830 q 2420 646 2422 691 l 2417 646 q 2363 730 2393 671 q 2409 798 2409 770 q 2346 857 2409 843 q 2162 849 2271 857 q 2132 825 2140 849 q 2135 781 2135 797 l 2135 716 l 2138 697 q 2102 635 2138 639 l 2097 635 q 2081 697 2081 635 l 2081 817 q 2108 841 2108 838 q 2002 854 2108 852 q 1988 846 1988 851 q 2007 779 2007 831 q 2005 770 2005 773 q 2007 768 2007 770 l 2005 751 l 2005 719 q 2002 678 2005 702 l 2005 662 q 2086 581 2005 607 q 2138 600 2104 581 l 2140 600 l 2140 586 q 2151 575 2147 575 l 2154 575 l 2205 597 l 2203 583 q 2268 572 2203 574 q 2314 583 2314 572 q 2298 613 2314 594 l 2298 719 l 2303 719 q 2382 572 2362 591 q 2582 570 2523 570 q 2626 646 2595 570 q 2610 656 2626 656 q 2566 632 2583 632 l 2501 632 l 2498 646 l 2498 694 q 2553 692 2516 694 q 2585 722 2561 696 q 2566 749 2585 736 l 2509 749 q 2496 779 2496 749 l 2496 795 q 2512 803 2496 802 l 2523 803 q 2607 735 2540 803 l 2610 735 q 2615 741 2615 735 l 2615 749 q 2610 808 2615 768 q 2612 865 2610 818 q 2601 873 2612 869 m 1470 863 q 1402 849 1422 849 l 1213 849 q 1183 827 1183 841 q 1204 800 1183 823 q 1156 705 1166 710 l 1153 705 q 1115 800 1115 797 l 1134 822 l 1134 825 q 1120 846 1134 840 l 1023 846 q 1006 841 1015 846 q 1020 819 1006 833 q 1088 689 1042 819 q 1139 562 1122 562 l 1142 562 q 1270 770 1160 583 l 1272 770 q 1270 627 1272 716 q 1267 618 1270 624 q 1237 589 1237 595 q 1432 575 1237 575 l 1440 575 q 1481 610 1457 575 l 1481 618 q 1476 654 1481 642 l 1473 654 q 1402 627 1428 627 l 1392 627 l 1364 629 l 1364 697 q 1432 681 1398 697 q 1457 724 1442 681 q 1424 738 1457 738 l 1416 738 q 1405 735 1410 738 q 1394 738 1400 738 l 1364 738 l 1362 757 l 1362 773 l 1364 792 l 1373 792 q 1430 784 1413 792 q 1457 743 1448 747 q 1473 825 1469 743 q 1514 765 1480 822 q 1511 727 1511 742 l 1511 705 q 1508 621 1511 671 q 1476 572 1476 576 q 1481 567 1476 567 l 1487 567 q 1573 610 1573 588 q 1571 648 1571 633 l 1571 673 l 1568 692 q 1571 694 1571 692 q 1641 640 1629 652 q 1695 572 1685 607 l 1704 572 q 1750 618 1750 597 l 1750 768 q 1782 795 1750 772 q 1826 789 1795 795 l 1826 627 l 1799 570 q 1807 559 1800 559 l 1812 559 q 1855 583 1828 559 q 1915 575 1870 583 l 1926 583 q 1907 613 1926 593 q 1910 792 1907 667 l 1950 792 q 1991 768 1959 792 q 1999 773 1999 768 l 1999 803 q 1953 857 1979 857 l 1820 857 q 1750 841 1757 857 l 1747 841 q 1733 854 1747 852 q 1687 846 1701 846 q 1638 854 1678 846 q 1622 838 1624 848 q 1668 806 1622 829 q 1685 724 1685 806 l 1685 719 q 1584 811 1664 732 q 1557 854 1560 854 l 1506 854 q 1476 833 1489 854 q 1470 863 1476 863 m 2300 800 q 2306 806 2300 805 q 2344 798 2326 806 q 2303 732 2344 785 l 2298 732 l 2300 760 l 2300 800 m 2216 803 l 2222 803 l 2222 635 l 2224 621 q 2214 608 2216 608 l 2211 608 q 2208 703 2208 671 l 2208 765 q 2216 803 2208 782 m 892 800 q 898 798 898 800 q 974 713 962 798 l 974 692 q 920 618 958 618 l 898 618 q 892 798 892 685 l 892 800 m 602 572 q 480 513 531 543 q 483 412 483 444 l 483 401 q 157 366 360 366 q 87 404 127 404 q 0 320 0 387 q 87 231 12 231 l 90 231 q 144 252 123 231 q 483 209 309 252 l 483 100 q 591 46 509 79 l 594 46 q 575 92 575 87 l 575 95 q 646 76 590 95 q 651 81 651 76 l 651 90 q 643 141 651 133 q 564 212 583 181 l 564 222 l 635 222 q 667 236 652 222 l 833 236 q 960 239 874 236 l 960 136 q 955 109 960 130 q 892 14 892 25 l 892 8 q 901 0 897 0 l 911 0 q 1017 46 922 0 q 1093 38 1031 46 q 1120 54 1104 38 q 1118 65 1120 60 q 1072 201 1072 104 l 1072 239 q 1321 241 1257 241 l 1324 241 l 1324 174 q 1275 76 1275 83 q 1294 60 1275 71 l 1305 60 q 1397 84 1390 84 q 1451 73 1409 84 l 1459 73 q 1465 79 1465 73 l 1465 87 q 1443 241 1443 219 l 1538 241 q 1481 84 1538 205 l 1481 81 l 1484 76 q 1522 73 1509 76 q 1652 87 1642 73 q 1636 239 1636 201 l 1636 241 l 1695 241 q 1793 73 1789 73 l 1801 73 q 1893 241 1832 73 l 1961 241 l 1961 168 q 1937 87 1961 149 l 1942 79 q 2032 76 2007 76 q 2124 87 2124 76 l 2124 95 q 2072 236 2072 148 l 2072 241 l 2195 241 l 2195 212 q 2173 130 2195 160 q 2138 100 2138 106 q 2165 68 2138 85 l 2189 68 q 2507 14 2394 68 q 2607 176 2525 15 q 2580 195 2599 195 l 2574 195 q 2403 163 2511 163 l 2330 168 l 2330 231 l 2333 244 l 2645 244 q 2775 304 2699 244 l 2775 309 q 2436 307 2556 307 l 2072 307 l 2072 315 l 2287 315 l 2287 320 q 2214 372 2226 353 l 2214 374 l 2298 374 l 2352 342 q 2403 315 2392 329 l 2450 315 l 2450 320 q 2357 372 2357 356 l 2363 374 l 2382 374 q 2409 361 2393 374 q 2504 315 2475 335 l 2642 315 q 2661 361 2656 315 q 2658 369 2658 361 l 2658 372 q 2775 312 2677 372 l 2775 315 q 2658 380 2775 330 q 2330 382 2618 380 l 2330 399 q 2333 453 2330 416 q 2387 456 2370 456 l 2393 456 q 2444 453 2414 456 q 2563 407 2467 453 l 2569 407 q 2577 415 2577 411 l 2577 418 q 2558 472 2561 437 q 2577 537 2558 510 q 2572 543 2577 542 l 2387 543 q 2165 545 2306 543 q 2148 515 2148 535 l 2148 510 q 2165 483 2148 499 q 2197 385 2197 483 l 2197 382 l 2070 382 l 2070 448 q 2146 537 2070 463 l 2146 540 q 1999 553 2146 553 q 1942 551 1990 553 q 1850 382 1887 475 l 1758 382 q 1747 396 1755 382 q 1649 545 1678 545 l 1497 545 l 1492 543 l 1495 529 q 1544 382 1544 476 l 1525 385 l 1446 385 q 1470 537 1453 496 q 1440 548 1470 548 l 1419 548 q 1362 551 1388 548 q 1310 548 1348 548 l 1294 548 l 1289 545 q 1299 529 1289 534 q 1324 393 1324 506 l 1324 385 l 1294 385 q 1299 434 1299 421 q 1259 545 1299 507 q 1218 548 1230 545 q 1031 545 1105 545 l 765 545 q 724 453 724 498 l 724 445 q 730 391 724 418 l 675 391 l 675 388 l 689 372 l 678 361 q 795 315 726 332 l 958 315 l 958 309 l 770 309 q 686 328 735 309 l 667 358 l 667 361 l 670 366 q 646 377 656 377 l 632 377 q 572 380 613 377 q 567 404 572 384 q 621 458 567 422 q 651 529 651 458 q 648 532 648 529 l 578 513 l 578 515 q 602 570 578 519 l 602 572 m 768 391 q 882 442 800 442 l 901 442 q 949 439 924 442 q 960 393 960 439 q 958 385 960 391 l 930 388 l 814 388 q 768 391 800 388 m 1077 442 l 1128 442 q 1264 388 1236 442 l 1264 385 l 1074 385 l 1074 429 l 1077 442 m 30 345 q 81 380 30 373 q 98 361 98 380 l 98 358 l 95 353 q 43 331 61 347 l 38 331 q 30 345 32 331 m 1142 377 l 1253 377 q 1280 350 1274 350 q 1291 374 1291 353 l 1294 374 q 1324 361 1304 374 q 1400 315 1392 315 l 1541 315 l 1541 307 l 1324 307 q 1074 309 1240 307 l 1074 315 l 1207 315 l 1207 317 l 1142 369 l 1142 377 m 583 369 q 700 315 659 330 l 700 309 l 689 309 q 673 304 682 309 q 662 309 673 309 q 583 366 623 320 l 583 369 m 475 328 q 499 345 484 345 l 502 345 q 510 334 506 345 q 480 312 482 312 q 475 317 475 312 l 475 328 m 515 296 q 526 315 521 315 l 537 315 q 540 307 537 312 q 518 288 534 288 q 515 296 518 290 m 1636 315 l 1652 315 q 1657 309 1657 315 l 1636 309 l 1636 315 m 1790 315 l 1809 315 l 1809 312 q 1804 307 1809 307 l 1793 307 q 1790 315 1793 309 m 1929 315 l 1959 315 l 1959 309 l 1929 309 l 1929 315 m 119 269 q 141 293 138 293 l 144 293 l 149 290 q 127 258 149 269 q 119 266 119 264 l 119 269 m 494 277 q 507 288 495 282 q 518 279 518 286 l 518 277 q 502 269 516 269 q 494 277 494 273 m 38 274 l 76 266 l 84 266 l 103 269 q 109 266 103 266 l 109 258 q 87 247 109 250 q 35 266 50 247 l 35 269 l 38 274 "},"A":{"ha":1090,"x_min":-32,"x_max":1076,"o":"m 591 965 l 620 965 q 713 813 670 965 q 1010 176 920 316 q 1076 60 1076 117 l 1061 54 l 880 54 q 757 140 757 54 q 663 365 686 365 q 446 357 507 357 q 352 46 424 304 q -3 10 352 22 l -3 3 q -32 10 -16 10 q 142 155 -32 106 q 207 307 207 201 l 207 350 l 193 350 q 47 321 69 321 l 47 328 q 193 458 79 458 q 287 553 287 458 q 337 821 337 718 l 337 835 q 258 951 337 897 l 272 958 q 591 965 463 965 m 554 726 l 532 726 q 475 480 475 496 l 620 480 q 634 495 634 480 q 554 726 620 518 "},"B":{"ha":932,"x_min":9,"x_max":912,"o":"m 424 973 q 156 966 300 966 l 69 966 l 22 960 l 22 940 l 49 906 q 163 806 163 875 l 163 157 l 156 123 q 9 36 16 57 l 9 16 q 29 9 16 16 q 290 3 193 3 l 551 3 q 751 63 631 3 q 912 264 879 143 q 899 317 903 264 q 711 491 826 451 l 711 511 l 718 511 q 852 712 852 620 q 839 759 839 746 q 424 973 739 973 m 377 859 q 391 866 377 866 q 604 712 604 829 q 457 545 577 545 l 404 545 q 377 859 377 545 m 410 425 l 504 425 q 645 283 595 425 l 645 277 q 404 110 645 136 l 391 110 q 410 425 404 372 "},"C":{"ha":899,"x_min":26,"x_max":827,"o":"m 600 969 l 781 969 q 827 909 827 969 l 827 775 q 781 715 827 715 l 747 715 q 687 782 695 782 l 654 782 q 567 789 610 782 q 319 502 319 789 l 319 495 q 547 214 319 245 q 573 221 562 214 q 600 214 585 214 l 627 214 q 707 295 707 218 q 760 315 755 315 q 821 301 775 308 l 821 54 q 781 14 821 14 q 233 101 304 14 q 52 382 52 246 q 26 535 43 382 q 246 896 26 741 q 600 969 420 969 "},"D":{"ha":1074,"x_min":20,"x_max":1040,"o":"m 87 967 q 118 960 118 967 l 208 967 l 665 967 q 1002 690 838 967 q 1040 532 1040 583 l 1040 465 q 800 75 1040 231 q 215 7 684 7 l 43 7 q 28 22 28 7 q 208 225 58 109 l 208 233 q 200 652 200 498 l 200 675 q 125 832 200 832 q 20 930 33 892 q 87 967 20 967 m 463 810 l 455 810 l 455 802 q 470 442 455 587 q 463 435 470 435 q 492 180 469 180 l 575 180 q 747 435 682 180 q 597 780 747 697 q 463 810 509 810 "},"E":{"ha":825,"x_min":34,"x_max":771,"o":"m 703 971 l 709 971 l 737 951 q 730 771 730 819 l 751 578 q 723 537 751 551 q 461 751 511 751 l 406 751 q 365 730 365 747 l 365 606 q 392 578 365 595 l 557 578 q 647 516 592 578 l 647 496 q 530 392 557 392 l 516 399 l 372 399 l 372 241 q 427 199 372 199 l 461 199 q 647 206 519 199 q 744 275 713 275 q 771 254 771 264 l 771 248 q 633 6 694 6 q 613 -1 627 6 q 365 6 459 6 l 130 6 q 82 68 82 6 l 82 213 q 117 254 82 248 q 123 282 123 267 l 123 296 q 117 302 123 302 l 123 316 l 123 620 q 117 695 123 649 q 123 716 123 709 q 41 882 123 800 q 34 888 41 888 q 137 937 37 928 l 172 930 l 592 930 q 703 971 613 930 "},"F":{"ha":902,"x_min":43,"x_max":849,"o":"m 812 965 l 827 965 q 849 907 849 962 q 783 566 816 566 l 769 566 q 616 726 709 726 l 465 726 l 465 559 q 479 544 466 544 l 508 544 q 610 537 564 544 q 682 544 648 544 q 777 494 777 544 q 711 355 726 355 l 696 355 q 508 406 586 406 l 465 406 q 471 210 471 272 l 471 174 l 559 14 l 559 0 l 355 0 q 43 43 62 0 q 145 145 43 49 q 159 646 159 524 q 43 907 159 664 l 43 914 l 79 922 l 355 922 q 428 914 390 922 q 493 922 455 922 l 530 922 q 602 914 564 922 q 812 965 731 936 "},"G":{"ha":951,"x_min":38,"x_max":918,"o":"m 471 973 l 478 973 q 784 802 784 939 q 836 742 812 785 l 836 705 q 747 690 784 690 l 672 690 q 583 705 635 690 l 583 712 l 597 764 q 508 802 551 802 q 307 667 334 802 q 269 436 269 535 l 269 384 q 426 168 307 168 l 463 168 q 657 264 595 168 l 657 272 q 478 339 657 285 q 463 384 463 363 l 463 399 q 515 451 463 451 l 873 451 q 918 406 918 451 l 918 160 q 873 115 918 115 q 829 212 829 115 l 806 212 q 590 33 720 33 q 433 3 585 13 q 180 85 309 3 q 60 361 60 180 q 38 518 45 361 q 127 794 73 794 q 389 958 237 928 q 471 973 398 958 "},"H":{"ha":1101,"x_min":35,"x_max":1042,"o":"m 106 971 l 420 971 q 470 921 470 971 l 470 900 q 413 807 470 878 q 406 771 406 794 l 406 629 q 420 614 408 614 l 649 614 l 670 629 l 663 678 l 663 750 q 649 914 649 907 q 699 971 649 971 l 963 971 q 1020 914 1020 971 q 941 800 1020 861 q 927 536 927 675 q 977 129 927 129 q 1042 79 1031 95 q 941 7 1013 7 l 741 7 q 677 0 717 7 q 606 71 642 0 l 656 129 l 656 429 q 642 443 656 443 l 599 443 q 570 435 583 443 q 477 450 554 443 q 413 429 413 443 l 413 200 q 420 64 413 143 q 391 0 411 16 l 356 7 l 149 7 q 35 71 60 7 q 106 136 35 93 q 149 564 149 182 l 149 578 q 77 842 149 842 q 49 914 49 889 q 106 971 58 971 "},"I":{"ha":479,"x_min":27,"x_max":396,"o":"m 61 935 l 61 962 l 96 969 l 355 969 q 396 949 380 969 q 341 361 341 779 l 389 75 q 355 40 389 56 q 252 60 283 60 l 68 13 q 27 54 27 30 l 116 218 l 116 634 q 61 935 116 901 "},"J":{"ha":854,"x_min":-7,"x_max":815,"o":"m 347 976 l 485 976 q 784 968 596 976 q 815 922 815 960 l 815 868 q 738 777 815 836 q 723 730 723 751 l 723 292 l 730 246 q 623 70 730 156 q 361 1 623 18 q -7 269 85 1 l -7 285 q 116 431 -7 352 l 123 431 q 277 239 277 327 q 308 200 296 200 l 377 200 q 462 385 462 248 q 454 761 454 656 q 316 868 454 868 q 300 914 300 893 l 300 930 q 347 976 300 976 "},"K":{"ha":1023,"x_min":28,"x_max":1026,"o":"m 834 971 q 861 932 861 964 l 861 918 q 788 641 861 671 q 471 482 486 505 l 471 475 q 920 218 727 305 q 1026 52 927 172 l 1013 45 l 781 45 q 451 257 750 52 l 338 330 l 338 317 q 378 59 338 292 q 352 33 372 33 q 259 45 281 45 l 226 45 l 67 6 q 28 33 28 21 l 28 45 q 114 218 97 160 l 114 680 q 61 905 114 850 l 81 932 l 94 925 l 153 932 l 193 925 l 226 932 q 358 925 300 925 l 365 925 q 385 905 375 925 q 345 647 345 778 l 345 641 l 352 641 q 735 839 732 809 q 834 971 771 920 "},"L":{"ha":773,"x_min":39,"x_max":781,"o":"m 490 967 l 505 967 q 522 935 522 962 l 522 930 q 410 803 522 884 l 368 755 l 368 469 q 362 358 368 427 q 415 300 362 300 l 595 300 q 712 385 639 300 l 754 416 q 781 379 781 408 l 781 369 q 659 67 682 174 q 627 3 646 3 l 611 3 q 490 73 598 3 q 172 146 323 146 l 151 146 q 77 136 134 146 q 39 194 45 173 q 124 290 39 201 l 124 729 q 55 845 124 766 l 55 856 q 172 903 55 903 l 256 903 q 490 967 308 903 "},"M":{"ha":1230,"x_min":35,"x_max":1181,"o":"m 845 969 l 983 969 q 1175 963 1046 969 l 1181 951 l 1181 945 q 1121 873 1181 915 q 1055 735 1055 780 l 1055 615 q 1121 87 1055 112 q 1151 26 1151 46 q 1139 15 1151 15 q 863 9 899 9 l 839 26 q 881 195 881 139 l 881 435 q 869 585 881 519 l 851 585 q 629 20 756 373 q 587 -3 596 -3 q 460 237 566 -3 q 298 561 326 517 l 293 561 l 293 531 q 287 483 293 489 q 293 417 293 442 l 293 302 q 298 297 293 297 q 293 291 298 291 q 323 33 304 123 q 275 9 319 9 l 106 9 l 47 3 l 35 20 q 137 483 137 214 l 137 717 q 53 945 137 806 l 53 951 l 71 963 l 106 963 q 161 957 138 963 q 220 963 192 963 q 269 957 235 963 q 329 963 290 963 q 527 567 363 963 q 581 447 572 480 l 593 447 q 755 813 621 490 q 845 969 829 969 "},"N":{"ha":872,"x_min":43,"x_max":781,"o":"m 131 971 l 230 971 q 307 861 290 971 q 593 519 401 720 l 604 519 q 593 779 599 539 q 439 911 439 898 q 477 966 439 939 q 604 943 587 943 l 615 943 q 731 966 647 943 q 781 872 768 966 q 775 399 775 577 l 775 200 q 648 24 775 101 l 632 24 q 527 205 597 148 q 302 431 473 277 q 290 420 290 430 q 302 277 302 330 l 302 145 q 71 2 302 82 l 48 7 l 48 13 q 131 178 48 47 q 142 680 142 606 l 43 883 q 109 966 69 952 q 131 971 119 971 "},"O":{"ha":774,"x_min":25,"x_max":723,"o":"m 454 969 q 677 763 607 969 q 723 466 723 526 q 546 25 723 300 l 517 14 q 380 20 437 20 q 317 8 340 20 q 31 380 105 8 q 25 431 25 412 q 197 866 25 636 q 454 969 361 969 m 283 609 q 271 357 283 528 q 357 271 271 336 q 465 437 465 347 l 465 534 q 380 661 465 635 l 374 661 q 283 609 319 661 "},"P":{"ha":633,"x_min":53,"x_max":603,"o":"m 370 971 l 414 971 q 592 838 514 971 q 603 771 603 789 q 309 410 603 599 l 309 165 q 314 159 309 159 l 309 149 l 309 143 l 347 43 q 225 4 347 4 q 53 49 53 4 l 53 54 q 98 143 53 97 l 98 921 q 175 960 98 960 q 370 971 213 960 m 342 793 l 314 788 l 314 610 q 431 754 396 610 q 342 793 431 785 "},"Q":{"ha":761,"x_min":59,"x_max":705,"o":"m 339 971 q 613 756 458 971 q 677 412 677 545 q 640 208 677 294 q 705 100 705 116 q 532 8 573 8 q 500 56 505 56 q 355 8 402 8 q 86 239 260 8 q 59 309 59 290 q 64 476 59 336 q 59 659 64 501 q 274 960 59 840 q 339 971 312 971 m 220 530 l 220 492 q 323 304 220 361 q 409 283 323 288 l 409 293 q 398 309 398 307 l 398 326 q 457 422 398 354 l 473 412 l 479 412 l 479 417 q 484 460 479 431 q 425 670 473 654 q 366 729 409 729 q 253 616 289 729 q 220 530 220 566 "},"R":{"ha":904,"x_min":52,"x_max":884,"o":"m 488 973 q 707 789 707 918 q 557 564 707 710 q 728 297 644 388 q 837 215 775 297 q 884 134 884 188 l 884 106 q 844 65 884 65 l 659 65 q 366 543 577 65 l 359 543 l 352 530 l 352 277 q 345 201 352 248 q 399 99 399 121 q 345 72 371 72 l 161 72 q 52 106 71 72 q 106 201 62 157 l 106 918 q 216 966 106 966 q 488 973 428 973 m 393 809 l 359 802 l 359 604 q 352 597 359 597 q 359 577 359 584 l 366 577 q 495 762 495 724 l 495 775 q 393 809 495 801 "},"S":{"ha":826,"x_min":41,"x_max":781,"o":"m 478 969 l 532 969 q 747 868 575 969 q 680 734 747 812 q 585 808 585 734 q 431 861 547 861 q 256 734 256 861 l 256 707 q 377 552 256 593 q 498 538 410 538 l 559 538 q 767 364 684 538 q 781 317 767 351 q 774 256 774 280 l 774 236 l 781 196 q 484 14 743 14 l 330 14 q 68 222 68 88 l 68 236 q 182 330 68 277 l 195 330 q 330 222 330 248 q 370 155 330 179 l 417 155 q 525 263 496 155 l 525 317 q 444 418 525 377 q 61 633 117 418 q 41 727 61 638 q 182 916 41 825 q 478 969 293 969 "},"T":{"ha":1042,"x_min":22,"x_max":999,"o":"m 111 971 l 117 971 q 144 964 133 971 l 192 971 q 511 964 408 964 q 565 971 528 964 q 626 964 591 964 q 707 971 671 964 q 823 964 760 964 l 904 964 q 999 761 984 964 l 999 754 l 979 673 l 972 673 q 714 781 888 781 l 653 781 l 619 774 q 612 334 619 704 q 687 123 612 199 q 646 83 670 83 q 551 96 573 96 q 341 8 490 96 q 307 35 311 16 q 416 205 314 60 q 422 259 422 242 q 429 503 422 415 q 422 761 422 595 l 402 774 l 212 774 q 63 666 175 774 l 56 666 q 22 754 22 676 l 22 795 q 111 971 41 949 "},"U":{"ha":914,"x_min":41,"x_max":844,"o":"m 107 969 q 439 918 439 951 q 350 836 439 908 l 350 770 q 357 763 350 763 q 350 741 350 748 q 357 534 350 661 q 350 424 350 442 q 424 210 350 210 l 460 210 q 549 431 549 264 q 534 682 534 538 l 534 836 q 741 954 534 954 q 836 947 836 954 q 844 918 844 934 l 844 836 q 792 682 792 739 l 792 409 q 800 115 792 300 q 615 4 777 92 q 556 85 556 30 l 380 26 q 107 240 236 26 q 85 357 94 273 q 100 741 90 433 q 41 932 100 888 l 41 954 q 107 969 107 960 "},"V":{"ha":978,"x_min":-22,"x_max":954,"o":"m 715 967 l 874 967 q 954 859 945 967 q 477 63 812 671 q 404 5 440 5 q 238 439 347 45 q 28 859 88 859 l -22 916 l -22 931 q 86 960 -22 960 l 317 960 q 397 888 372 960 q 332 808 397 878 l 332 801 q 455 483 368 689 l 477 483 q 629 801 597 672 l 629 808 q 570 902 570 873 q 715 967 605 967 "},"W":{"ha":1360,"x_min":-17,"x_max":1348,"o":"m 600 976 l 732 976 q 842 903 803 976 q 790 800 790 822 q 922 484 863 552 l 937 484 q 1040 814 1040 780 q 988 880 1040 825 l 988 895 q 1061 968 1003 968 l 1253 968 q 1348 939 1348 963 l 1348 924 q 1157 528 1219 812 q 1018 52 1100 365 q 974 0 985 0 l 951 0 l 665 565 l 379 0 l 357 0 q 203 463 311 0 q 35 866 80 848 q -17 924 29 866 l -17 939 q 79 968 -17 963 l 269 968 q 342 895 342 954 l 342 880 q 291 800 291 829 q 394 484 291 783 l 409 484 q 548 814 449 508 q 490 903 535 814 q 600 976 528 976 "},"X":{"ha":1122,"x_min":-12,"x_max":1131,"o":"m 787 969 l 941 969 q 1021 888 1002 969 q 663 449 840 694 q 1065 60 950 60 q 1131 39 1065 52 l 1131 17 q 1117 2 1131 2 l 809 2 q 582 266 758 2 l 516 332 q 318 46 505 332 q 69 9 318 9 l -4 9 q -12 24 -4 24 q 135 90 -12 47 l 333 427 q 340 456 340 439 q 135 859 274 641 q 33 932 71 886 l 33 947 q 142 962 102 962 l 377 962 q 457 911 419 962 q 391 844 457 898 q 530 588 512 588 l 538 588 q 692 838 692 808 q 633 911 692 848 q 787 969 666 969 "},"Y":{"ha":1025,"x_min":-33,"x_max":1030,"o":"m 698 966 l 731 973 l 984 973 l 1030 966 l 1030 947 q 904 880 1015 920 q 645 528 841 840 q 565 408 645 515 l 565 288 q 678 116 565 170 q 798 16 763 61 l 798 9 l 758 3 q 319 16 682 3 q 273 36 302 16 q 326 388 326 114 l 93 873 q -33 933 -23 911 l -33 960 l 0 966 q 279 893 279 966 q 452 568 440 571 q 698 966 475 579 "},"Z":{"ha":1030,"x_min":33,"x_max":1049,"o":"m 156 969 l 874 969 q 897 753 886 921 l 897 724 l 845 724 q 658 502 835 724 q 454 262 630 480 l 454 257 q 465 245 455 245 l 477 245 q 979 298 880 245 q 1049 262 1049 285 q 792 0 848 0 q 150 87 471 87 l 121 82 q 56 134 79 95 q 127 199 56 143 q 588 759 483 618 l 588 777 l 384 777 q 92 654 231 777 l 80 654 q 33 794 45 654 q 156 969 87 969 "},"[":{"ha":514,"x_min":0,"x_max":0,"o":""},"\\":{"ha":386,"x_min":0,"x_max":0,"o":""},"]":{"ha":514,"x_min":0,"x_max":0,"o":""},"^":{"ha":688,"x_min":0,"x_max":0,"o":""},"_":{"ha":694,"x_min":0,"x_max":0,"o":""},"`":{"ha":694,"x_min":0,"x_max":0,"o":""},"a":{"ha":1094,"x_min":-22,"x_max":1085,"o":"m 600 965 l 629 965 q 723 813 680 965 q 1020 176 929 316 q 1085 60 1085 117 l 1071 54 l 890 54 q 766 140 766 54 q 673 365 696 365 q 455 357 517 357 q 361 46 433 304 q 7 10 361 22 l 7 3 q -22 10 -6 10 q 151 155 -22 106 q 216 307 216 201 l 216 350 l 202 350 q 57 321 79 321 l 57 328 q 202 458 88 458 q 296 553 296 458 q 347 821 347 718 l 347 835 q 267 951 347 897 l 281 958 q 600 965 472 965 m 564 726 l 542 726 q 484 480 484 496 l 629 480 q 644 495 644 480 q 564 726 629 518 "},"b":{"ha":935,"x_min":18,"x_max":922,"o":"m 433 973 q 165 966 309 966 l 79 966 l 32 960 l 32 940 l 58 906 q 172 806 172 875 l 172 157 l 165 123 q 18 36 25 57 l 18 16 q 39 9 25 16 q 299 3 203 3 l 560 3 q 761 63 641 3 q 922 264 888 143 q 909 317 913 264 q 721 491 836 451 l 721 511 l 728 511 q 861 712 861 620 q 848 759 848 746 q 433 973 749 973 m 387 859 q 400 866 387 866 q 614 712 614 829 q 467 545 587 545 l 413 545 q 387 859 387 545 m 420 425 l 513 425 q 654 283 605 425 l 654 277 q 413 110 654 136 l 400 110 q 420 425 413 372 "},"c":{"ha":902,"x_min":35,"x_max":837,"o":"m 610 969 l 790 969 q 837 909 837 969 l 837 775 q 790 715 837 715 l 756 715 q 696 782 705 782 l 663 782 q 576 789 620 782 q 329 502 329 789 l 329 495 q 556 214 329 245 q 583 221 571 214 q 610 214 595 214 l 636 214 q 716 295 716 218 q 770 315 765 315 q 830 301 785 308 l 830 54 q 790 14 830 14 q 242 101 314 14 q 62 382 62 246 q 35 535 52 382 q 256 896 35 741 q 610 969 429 969 "},"d":{"ha":1078,"x_min":30,"x_max":1049,"o":"m 97 967 q 127 960 127 967 l 217 967 l 675 967 q 1012 690 847 967 q 1049 532 1049 583 l 1049 465 q 810 75 1049 231 q 224 7 693 7 l 52 7 q 37 22 37 7 q 217 225 67 109 l 217 233 q 210 652 210 498 l 210 675 q 135 832 210 832 q 30 930 43 892 q 97 967 30 967 m 472 810 l 465 810 l 465 802 q 479 442 465 587 q 472 435 479 435 q 502 180 478 180 l 585 180 q 757 435 692 180 q 607 780 757 697 q 472 810 519 810 "},"e":{"ha":828,"x_min":43,"x_max":781,"o":"m 712 971 l 719 971 l 747 951 q 739 771 739 819 l 760 578 q 732 537 760 551 q 471 751 521 751 l 416 751 q 374 730 374 747 l 374 606 q 401 578 374 595 l 567 578 q 656 516 602 578 l 656 496 q 540 392 567 392 l 526 399 l 381 399 l 381 241 q 436 199 381 199 l 471 199 q 656 206 529 199 q 753 275 722 275 q 781 254 781 264 l 781 248 q 643 6 703 6 q 623 -1 636 6 q 374 6 469 6 l 140 6 q 92 68 92 6 l 92 213 q 126 254 92 248 q 133 282 133 267 l 133 296 q 126 302 133 302 l 133 316 l 133 620 q 126 695 133 649 q 133 716 133 709 q 50 882 133 800 q 43 888 50 888 q 146 937 47 928 l 181 930 l 602 930 q 712 971 623 930 "},"f":{"ha":905,"x_min":53,"x_max":859,"o":"m 822 965 l 836 965 q 859 907 859 962 q 793 566 825 566 l 779 566 q 626 726 719 726 l 474 726 l 474 559 q 488 544 475 544 l 517 544 q 619 537 574 544 q 692 544 657 544 q 786 494 786 544 q 720 355 735 355 l 706 355 q 517 406 595 406 l 474 406 q 481 210 481 272 l 481 174 l 568 14 l 568 0 l 365 0 q 53 43 71 0 q 155 145 53 49 q 169 646 169 524 q 53 907 169 664 l 53 914 l 89 922 l 365 922 q 437 914 399 922 q 503 922 465 922 l 539 922 q 612 914 574 922 q 822 965 741 936 "},"g":{"ha":954,"x_min":47,"x_max":928,"o":"m 480 973 l 488 973 q 793 802 793 939 q 846 742 821 785 l 846 705 q 756 690 793 690 l 682 690 q 592 705 644 690 l 592 712 l 607 764 q 517 802 560 802 q 316 667 344 802 q 279 436 279 535 l 279 384 q 435 168 316 168 l 473 168 q 667 264 605 168 l 667 272 q 488 339 667 285 q 473 384 473 363 l 473 399 q 525 451 473 451 l 883 451 q 928 406 928 451 l 928 160 q 883 115 928 115 q 838 212 838 115 l 816 212 q 600 33 730 33 q 443 3 594 13 q 189 85 318 3 q 70 361 70 180 q 47 518 55 361 q 137 794 83 794 q 398 958 247 928 q 480 973 408 958 "},"h":{"ha":1104,"x_min":44,"x_max":1051,"o":"m 115 971 l 430 971 q 479 921 479 971 l 479 900 q 422 807 479 878 q 416 771 416 794 l 416 629 q 430 614 417 614 l 659 614 l 680 629 l 673 678 l 673 750 q 659 914 659 907 q 708 971 659 971 l 972 971 q 1029 914 1029 971 q 951 800 1029 861 q 937 536 937 675 q 987 129 937 129 q 1051 79 1040 95 q 951 7 1023 7 l 751 7 q 687 0 726 7 q 615 71 651 0 l 665 129 l 665 429 q 651 443 665 443 l 608 443 q 580 435 592 443 q 487 450 564 443 q 422 429 422 443 l 422 200 q 430 64 422 143 q 401 0 420 16 l 366 7 l 158 7 q 44 71 69 7 q 115 136 44 93 q 158 564 158 182 l 158 578 q 87 842 158 842 q 58 914 58 889 q 115 971 67 971 "},"i":{"ha":483,"x_min":37,"x_max":406,"o":"m 71 935 l 71 962 l 105 969 l 364 969 q 406 949 390 969 q 351 361 351 779 l 399 75 q 364 40 399 56 q 262 60 293 60 l 77 13 q 37 54 37 30 l 125 218 l 125 634 q 71 935 125 901 "},"j":{"ha":857,"x_min":3,"x_max":825,"o":"m 356 976 l 494 976 q 793 968 606 976 q 825 922 825 960 l 825 868 q 747 777 825 836 q 732 730 732 751 l 732 292 l 740 246 q 632 70 740 156 q 371 1 632 18 q 3 269 95 1 l 3 285 q 125 431 3 352 l 133 431 q 287 239 287 327 q 317 200 306 200 l 387 200 q 471 385 471 248 q 463 761 463 656 q 326 868 463 868 q 310 914 310 893 l 310 930 q 356 976 310 976 "},"k":{"ha":1027,"x_min":37,"x_max":1036,"o":"m 844 971 q 870 932 870 964 l 870 918 q 798 641 870 671 q 480 482 495 505 l 480 475 q 930 218 736 305 q 1036 52 937 172 l 1022 45 l 791 45 q 460 257 760 52 l 348 330 l 348 317 q 388 59 348 292 q 361 33 381 33 q 269 45 290 45 l 235 45 l 77 6 q 37 33 37 21 l 37 45 q 123 218 106 160 l 123 680 q 71 905 123 850 l 90 932 l 103 925 l 163 932 l 203 925 l 235 932 q 368 925 310 925 l 374 925 q 394 905 385 925 q 355 647 355 778 l 355 641 l 361 641 q 745 839 741 809 q 844 971 781 920 "},"l":{"ha":777,"x_min":49,"x_max":790,"o":"m 499 967 l 515 967 q 531 935 531 962 l 531 930 q 420 803 531 884 l 377 755 l 377 469 q 372 358 377 427 q 425 300 372 300 l 605 300 q 722 385 648 300 l 764 416 q 790 379 790 408 l 790 369 q 668 67 691 174 q 637 3 655 3 l 621 3 q 499 73 608 3 q 181 146 332 146 l 160 146 q 86 136 143 146 q 49 194 54 173 q 134 290 49 201 l 134 729 q 64 845 134 766 l 64 856 q 181 903 64 903 l 266 903 q 499 967 317 903 "},"m":{"ha":1233,"x_min":44,"x_max":1191,"o":"m 854 969 l 993 969 q 1185 963 1055 969 l 1191 951 l 1191 945 q 1131 873 1191 915 q 1065 735 1065 780 l 1065 615 q 1131 87 1065 112 q 1160 26 1160 46 q 1149 15 1160 15 q 873 9 908 9 l 848 26 q 890 195 890 139 l 890 435 q 878 585 890 519 l 861 585 q 638 20 766 373 q 596 -3 606 -3 q 470 237 575 -3 q 308 561 335 517 l 302 561 l 302 531 q 296 483 302 489 q 302 417 302 442 l 302 302 q 308 297 302 297 q 302 291 308 291 q 332 33 314 123 q 284 9 329 9 l 116 9 l 56 3 l 44 20 q 146 483 146 214 l 146 717 q 62 945 146 806 l 62 951 l 80 963 l 116 963 q 170 957 148 963 q 230 963 201 963 q 278 957 245 963 q 338 963 299 963 q 536 567 373 963 q 591 447 581 480 l 602 447 q 764 813 631 490 q 854 969 838 969 "},"n":{"ha":876,"x_min":52,"x_max":790,"o":"m 140 971 l 239 971 q 317 861 300 971 q 603 519 410 720 l 614 519 q 603 779 608 539 q 449 911 449 898 q 487 966 449 939 q 614 943 596 943 l 625 943 q 741 966 656 943 q 790 872 778 966 q 785 399 785 577 l 785 200 q 658 24 785 101 l 642 24 q 536 205 607 148 q 311 431 483 277 q 300 420 300 430 q 311 277 311 330 l 311 145 q 80 2 311 82 l 58 7 l 58 13 q 140 178 58 47 q 151 680 151 606 l 52 883 q 118 966 79 952 q 140 971 128 971 "},"o":{"ha":777,"x_min":35,"x_max":732,"o":"m 464 969 q 687 763 616 969 q 732 466 732 526 q 555 25 732 300 l 526 14 q 389 20 446 20 q 326 8 349 20 q 40 380 115 8 q 35 431 35 412 q 206 866 35 636 q 464 969 371 969 m 292 609 q 281 357 292 528 q 366 271 281 336 q 475 437 475 347 l 475 534 q 389 661 475 635 l 384 661 q 292 609 329 661 "},"p":{"ha":637,"x_min":62,"x_max":612,"o":"m 379 971 l 424 971 q 602 838 524 971 q 612 771 612 789 q 318 410 612 599 l 318 165 q 323 159 318 159 l 318 149 l 318 143 l 357 43 q 235 4 357 4 q 62 49 62 4 l 62 54 q 107 143 62 97 l 107 921 q 184 960 107 960 q 379 971 222 960 m 351 793 l 323 788 l 323 610 q 440 754 406 610 q 351 793 440 785 "},"q":{"ha":764,"x_min":68,"x_max":714,"o":"m 349 971 q 623 756 468 971 q 687 412 687 545 q 650 208 687 294 q 714 100 714 116 q 542 8 583 8 q 509 56 515 56 q 364 8 412 8 q 96 239 270 8 q 68 309 68 290 q 74 476 68 336 q 68 659 74 501 q 283 960 68 840 q 349 971 321 971 m 230 530 l 230 492 q 332 304 230 361 q 418 283 332 288 l 418 293 q 408 309 408 307 l 408 326 q 467 422 408 354 l 483 412 l 488 412 l 488 417 q 494 460 488 431 q 434 670 483 654 q 375 729 418 729 q 262 616 298 729 q 230 530 230 566 "},"r":{"ha":907,"x_min":61,"x_max":894,"o":"m 498 973 q 716 789 716 918 q 566 564 716 710 q 737 297 653 388 q 846 215 785 297 q 894 134 894 188 l 894 106 q 853 65 894 65 l 669 65 q 375 543 587 65 l 368 543 l 361 530 l 361 277 q 355 201 361 248 q 409 99 409 121 q 355 72 380 72 l 170 72 q 61 106 80 72 q 116 201 71 157 l 116 918 q 225 966 116 966 q 498 973 437 973 m 402 809 l 368 802 l 368 604 q 361 597 368 597 q 368 577 368 584 l 375 577 q 505 762 505 724 l 505 775 q 402 809 505 801 "},"s":{"ha":829,"x_min":50,"x_max":790,"o":"m 488 969 l 541 969 q 756 868 585 969 q 689 734 756 812 q 595 808 595 734 q 440 861 556 861 q 265 734 265 861 l 265 707 q 387 552 265 593 q 507 538 420 538 l 568 538 q 777 364 694 538 q 790 317 777 351 q 783 256 783 280 l 783 236 l 790 196 q 494 14 753 14 l 339 14 q 77 222 77 88 l 77 236 q 191 330 77 277 l 205 330 q 339 222 339 248 q 380 155 339 179 l 427 155 q 534 263 506 155 l 534 317 q 454 418 534 377 q 71 633 126 418 q 50 727 71 638 q 191 916 50 825 q 488 969 302 969 "},"t":{"ha":1046,"x_min":32,"x_max":1008,"o":"m 120 971 l 127 971 q 154 964 142 971 l 201 971 q 520 964 417 964 q 574 971 537 964 q 635 964 600 964 q 717 971 681 964 q 832 964 770 964 l 913 964 q 1008 761 994 964 l 1008 754 l 988 673 l 981 673 q 724 781 898 781 l 663 781 l 629 774 q 622 334 629 704 q 696 123 622 199 q 656 83 680 83 q 561 96 583 96 q 351 8 500 96 q 317 35 320 16 q 425 205 323 60 q 432 259 432 242 q 439 503 432 415 q 432 761 432 595 l 412 774 l 222 774 q 73 666 184 774 l 66 666 q 32 754 32 676 l 32 795 q 120 971 50 949 "},"u":{"ha":918,"x_min":50,"x_max":853,"o":"m 117 969 q 448 918 448 951 q 359 836 448 908 l 359 770 q 367 763 359 763 q 359 741 359 748 q 367 534 359 661 q 359 424 359 442 q 433 210 359 210 l 470 210 q 559 431 559 264 q 544 682 544 538 l 544 836 q 750 954 544 954 q 846 947 846 954 q 853 918 853 934 l 853 836 q 802 682 802 739 l 802 409 q 809 115 802 300 q 625 4 787 92 q 566 85 566 30 l 389 26 q 117 240 245 26 q 94 357 104 273 q 109 741 100 433 q 50 932 109 888 l 50 954 q 117 969 117 960 "},"v":{"ha":981,"x_min":-13,"x_max":963,"o":"m 724 967 l 884 967 q 963 859 954 967 q 486 63 822 671 q 414 5 450 5 q 248 439 356 45 q 38 859 98 859 l -13 916 l -13 931 q 96 960 -13 960 l 327 960 q 406 888 381 960 q 341 808 406 878 l 341 801 q 465 483 378 689 l 486 483 q 638 801 607 672 l 638 808 q 580 902 580 873 q 724 967 614 967 "},"w":{"ha":1363,"x_min":-7,"x_max":1357,"o":"m 609 976 l 741 976 q 851 903 812 976 q 800 800 800 822 q 932 484 873 552 l 947 484 q 1049 814 1049 780 q 998 880 1049 825 l 998 895 q 1071 968 1013 968 l 1262 968 q 1357 939 1357 963 l 1357 924 q 1166 528 1229 812 q 1027 52 1109 365 q 983 0 994 0 l 961 0 l 675 565 l 389 0 l 367 0 q 213 463 321 0 q 44 866 90 848 q -7 924 39 866 l -7 939 q 88 968 -7 963 l 279 968 q 352 895 352 954 l 352 880 q 300 800 300 829 q 404 484 300 783 l 418 484 q 557 814 458 508 q 499 903 545 814 q 609 976 537 976 "},"x":{"ha":1125,"x_min":-2,"x_max":1141,"o":"m 797 969 l 950 969 q 1031 888 1011 969 q 672 449 850 694 q 1075 60 960 60 q 1141 39 1075 52 l 1141 17 q 1126 2 1141 2 l 819 2 q 591 266 767 2 l 526 332 q 328 46 515 332 q 79 9 328 9 l 5 9 q -2 24 5 24 q 144 90 -2 47 l 342 427 q 350 456 350 439 q 144 859 283 641 q 42 932 81 886 l 42 947 q 152 962 111 962 l 387 962 q 467 911 429 962 q 401 844 467 898 q 540 588 522 588 l 547 588 q 701 838 701 808 q 643 911 701 848 q 797 969 675 969 "},"y":{"ha":1029,"x_min":-24,"x_max":1040,"o":"m 707 966 l 741 973 l 994 973 l 1040 966 l 1040 947 q 913 880 1025 920 q 654 528 850 840 q 574 408 654 515 l 574 288 q 688 116 574 170 q 807 16 772 61 l 807 9 l 767 3 q 328 16 691 3 q 282 36 312 16 q 335 388 335 114 l 102 873 q -24 933 -14 911 l -24 960 l 9 966 q 289 893 289 966 q 462 568 450 571 q 707 966 485 579 "},"z":{"ha":1034,"x_min":43,"x_max":1059,"o":"m 165 969 l 884 969 q 907 753 895 921 l 907 724 l 854 724 q 667 502 844 724 q 463 262 640 480 l 463 257 q 475 245 465 245 l 486 245 q 989 298 889 245 q 1059 262 1059 285 q 802 0 857 0 q 159 87 481 87 l 130 82 q 66 134 88 95 q 136 199 66 143 q 597 759 492 618 l 597 777 l 393 777 q 101 654 240 777 l 90 654 q 43 794 54 654 q 165 969 97 969 "},"{":{"ha":688,"x_min":0,"x_max":0,"o":""},"|":{"ha":688,"x_min":0,"x_max":0,"o":""},"}":{"ha":688,"x_min":0,"x_max":0,"o":""},"~":{"ha":688,"x_min":0,"x_max":0,"o":""},"¡":{"ha":456,"x_min":0,"x_max":0,"o":""},"¢":{"ha":772,"x_min":0,"x_max":0,"o":""},"£":{"ha":688,"x_min":0,"x_max":0,"o":""},"¤":{"ha":688,"x_min":0,"x_max":0,"o":""},"¥":{"ha":856,"x_min":0,"x_max":0,"o":""},"¦":{"ha":688,"x_min":0,"x_max":0,"o":""},"§":{"ha":688,"x_min":0,"x_max":0,"o":""},"¨":{"ha":694,"x_min":0,"x_max":0,"o":""},"©":{"ha":1135,"x_min":0,"x_max":0,"o":""},"ª":{"ha":439,"x_min":0,"x_max":0,"o":""},"«":{"ha":640,"x_min":0,"x_max":0,"o":""},"¬":{"ha":688,"x_min":0,"x_max":0,"o":""},"®":{"ha":1135,"x_min":0,"x_max":0,"o":""},"¯":{"ha":454,"x_min":0,"x_max":0,"o":""},"°":{"ha":457,"x_min":0,"x_max":0,"o":""},"±":{"ha":688,"x_min":0,"x_max":0,"o":""},"²":{"ha":688,"x_min":0,"x_max":0,"o":""},"³":{"ha":688,"x_min":0,"x_max":0,"o":""},"´":{"ha":694,"x_min":0,"x_max":0,"o":""},"µ":{"ha":800,"x_min":0,"x_max":0,"o":""},"¶":{"ha":694,"x_min":0,"x_max":0,"o":""},"·":{"ha":345,"x_min":0,"x_max":0,"o":""},"∙":{"ha":345,"x_min":0,"x_max":0,"o":""},"¸":{"ha":694,"x_min":0,"x_max":0,"o":""},"¹":{"ha":688,"x_min":0,"x_max":0,"o":""},"º":{"ha":487,"x_min":0,"x_max":0,"o":""},"»":{"ha":640,"x_min":0,"x_max":0,"o":""},"¼":{"ha":1158,"x_min":0,"x_max":0,"o":""},"½":{"ha":1332,"x_min":0,"x_max":0,"o":""},"¾":{"ha":1158,"x_min":0,"x_max":0,"o":""},"¿":{"ha":507,"x_min":0,"x_max":0,"o":""},"À":{"ha":1044,"x_min":0,"x_max":0,"o":""},"Á":{"ha":1044,"x_min":0,"x_max":0,"o":""},"Â":{"ha":1044,"x_min":0,"x_max":0,"o":""},"Ã":{"ha":1044,"x_min":0,"x_max":0,"o":""},"Ä":{"ha":1044,"x_min":0,"x_max":0,"o":""},"Å":{"ha":1044,"x_min":0,"x_max":0,"o":""},"Æ":{"ha":1436,"x_min":0,"x_max":0,"o":""},"Ç":{"ha":949,"x_min":0,"x_max":0,"o":""},"È":{"ha":781,"x_min":0,"x_max":0,"o":""},"É":{"ha":781,"x_min":0,"x_max":0,"o":""},"Ê":{"ha":781,"x_min":0,"x_max":0,"o":""},"Ë":{"ha":781,"x_min":0,"x_max":0,"o":""},"Ì":{"ha":446,"x_min":0,"x_max":0,"o":""},"Í":{"ha":446,"x_min":0,"x_max":0,"o":""},"Î":{"ha":446,"x_min":0,"x_max":0,"o":""},"Ï":{"ha":446,"x_min":0,"x_max":0,"o":""},"Ð":{"ha":1029,"x_min":0,"x_max":0,"o":""},"Ñ":{"ha":1054,"x_min":0,"x_max":0,"o":""},"Ò":{"ha":1095,"x_min":0,"x_max":0,"o":""},"Ó":{"ha":1095,"x_min":0,"x_max":0,"o":""},"Ô":{"ha":1095,"x_min":0,"x_max":0,"o":""},"Õ":{"ha":1095,"x_min":0,"x_max":0,"o":""},"Ö":{"ha":1095,"x_min":0,"x_max":0,"o":""},"×":{"ha":688,"x_min":0,"x_max":0,"o":""},"Ø":{"ha":1095,"x_min":0,"x_max":0,"o":""},"Ù":{"ha":1018,"x_min":0,"x_max":0,"o":""},"Ú":{"ha":1018,"x_min":0,"x_max":0,"o":""},"Û":{"ha":1018,"x_min":0,"x_max":0,"o":""},"Ü":{"ha":1018,"x_min":0,"x_max":0,"o":""},"Ý":{"ha":836,"x_min":0,"x_max":0,"o":""},"Þ":{"ha":760,"x_min":0,"x_max":0,"o":""},"ß":{"ha":848,"x_min":0,"x_max":0,"o":""},"à":{"ha":625,"x_min":0,"x_max":0,"o":""},"á":{"ha":625,"x_min":0,"x_max":0,"o":""},"â":{"ha":625,"x_min":0,"x_max":0,"o":""},"ã":{"ha":625,"x_min":0,"x_max":0,"o":""},"ä":{"ha":625,"x_min":0,"x_max":0,"o":""},"å":{"ha":625,"x_min":0,"x_max":0,"o":""},"æ":{"ha":986,"x_min":0,"x_max":0,"o":""},"ç":{"ha":614,"x_min":0,"x_max":0,"o":""},"è":{"ha":616,"x_min":0,"x_max":0,"o":""},"é":{"ha":616,"x_min":0,"x_max":0,"o":""},"ê":{"ha":616,"x_min":0,"x_max":0,"o":""},"ë":{"ha":616,"x_min":0,"x_max":0,"o":""},"ì":{"ha":349,"x_min":0,"x_max":0,"o":""},"í":{"ha":349,"x_min":0,"x_max":0,"o":""},"î":{"ha":349,"x_min":0,"x_max":0,"o":""},"ï":{"ha":349,"x_min":0,"x_max":0,"o":""},"ð":{"ha":772,"x_min":0,"x_max":0,"o":""},"ñ":{"ha":751,"x_min":0,"x_max":0,"o":""},"ò":{"ha":685,"x_min":0,"x_max":0,"o":""},"ó":{"ha":685,"x_min":0,"x_max":0,"o":""},"ô":{"ha":685,"x_min":0,"x_max":0,"o":""},"õ":{"ha":685,"x_min":0,"x_max":0,"o":""},"ö":{"ha":685,"x_min":0,"x_max":0,"o":""},"÷":{"ha":688,"x_min":0,"x_max":0,"o":""},"ø":{"ha":685,"x_min":0,"x_max":0,"o":""},"ù":{"ha":718,"x_min":0,"x_max":0,"o":""},"ú":{"ha":718,"x_min":0,"x_max":0,"o":""},"û":{"ha":718,"x_min":0,"x_max":0,"o":""},"ü":{"ha":718,"x_min":0,"x_max":0,"o":""},"ý":{"ha":589,"x_min":0,"x_max":0,"o":""},"þ":{"ha":685,"x_min":0,"x_max":0,"o":""},"ÿ":{"ha":589,"x_min":0,"x_max":0,"o":""},"ı":{"ha":349,"x_min":0,"x_max":0,"o":""},"ˆ":{"ha":694,"x_min":0,"x_max":0,"o":""},"ˇ":{"ha":694,"x_min":0,"x_max":0,"o":""},"ˉ":{"ha":694,"x_min":0,"x_max":0,"o":""},"˘":{"ha":694,"x_min":0,"x_max":0,"o":""},"˙":{"ha":694,"x_min":0,"x_max":0,"o":""},"˚":{"ha":694,"x_min":0,"x_max":0,"o":""},"˛":{"ha":694,"x_min":0,"x_max":0,"o":""},"˜":{"ha":694,"x_min":0,"x_max":0,"o":""},"˝":{"ha":694,"x_min":0,"x_max":0,"o":""},"–":{"ha":751,"x_min":0,"x_max":0,"o":""},"—":{"ha":1389,"x_min":0,"x_max":0,"o":""},"‘":{"ha":378,"x_min":0,"x_max":0,"o":""},"’":{"ha":378,"x_min":0,"x_max":0,"o":""},"‚":{"ha":378,"x_min":0,"x_max":0,"o":""},"“":{"ha":617,"x_min":0,"x_max":0,"o":""},"”":{"ha":617,"x_min":0,"x_max":0,"o":""},"„":{"ha":617,"x_min":0,"x_max":0,"o":""},"†":{"ha":688,"x_min":0,"x_max":0,"o":""},"‡":{"ha":688,"x_min":0,"x_max":0,"o":""},"•":{"ha":694,"x_min":0,"x_max":0,"o":""},"…":{"ha":1389,"x_min":0,"x_max":0,"o":""},"‹":{"ha":428,"x_min":0,"x_max":0,"o":""},"›":{"ha":428,"x_min":0,"x_max":0,"o":""},"⁄":{"ha":232,"x_min":0,"x_max":0,"o":""},"∕":{"ha":232,"x_min":0,"x_max":0,"o":""},"₣":{"ha":688,"x_min":0,"x_max":0,"o":""},"₤":{"ha":688,"x_min":0,"x_max":0,"o":""},"₧":{"ha":1375,"x_min":0,"x_max":0,"o":""},"€":{"ha":688,"x_min":0,"x_max":0,"o":""},"№":{"ha":1540,"x_min":0,"x_max":0,"o":""},"™":{"ha":1015,"x_min":0,"x_max":0,"o":""},"∂":{"ha":688,"x_min":0,"x_max":0,"o":""},"∆":{"ha":733,"x_min":0,"x_max":0,"o":""},"∏":{"ha":1027,"x_min":0,"x_max":0,"o":""},"∑":{"ha":818,"x_min":0,"x_max":0,"o":""},"−":{"ha":688,"x_min":0,"x_max":0,"o":""},"√":{"ha":688,"x_min":0,"x_max":0,"o":""},"∞":{"ha":688,"x_min":0,"x_max":0,"o":""},"∫":{"ha":451,"x_min":0,"x_max":0,"o":""},"≈":{"ha":688,"x_min":0,"x_max":0,"o":""},"≤":{"ha":688,"x_min":0,"x_max":0,"o":""},"≥":{"ha":688,"x_min":0,"x_max":0,"o":""},"":{"ha":728,"x_min":0,"x_max":0,"o":""},"ﬁ":{"ha":728,"x_min":0,"x_max":0,"o":""},"":{"ha":733,"x_min":0,"x_max":0,"o":""},"ﬂ":{"ha":733,"x_min":0,"x_max":0,"o":""}}}
